<svg width="50" height="50" viewBox="0 0 50 50" fill="none" xmlns="http://www.w3.org/2000/svg">
<path d="M13.4993 40.3506L16.3567 38.0647L16.3777 38.0486C16.9734 37.572 17.274 37.3315 17.6094 37.1602C17.9103 37.0064 18.2311 36.8945 18.5621 36.8266C18.9352 36.75 19.3238 36.75 20.1039 36.75H36.3808C38.4769 36.75 39.5262 36.75 40.3275 36.3417C41.0331 35.9821 41.6072 35.4079 41.9667 34.7023C42.375 33.9009 42.375 32.8528 42.375 30.7567V16.4942C42.375 14.3981 42.375 13.3485 41.9667 12.5471C41.6072 11.8415 41.032 11.2683 40.3264 10.9087C39.5242 10.5 38.4756 10.5 36.3754 10.5H14.6254C12.5252 10.5 11.4743 10.5 10.6721 10.9087C9.96651 11.2683 9.39325 11.8415 9.03373 12.5471C8.625 13.3493 8.625 14.4002 8.625 16.5004V38.0085C8.625 40.0067 8.625 41.0056 9.03461 41.5187C9.39084 41.965 9.93082 42.2246 10.5018 42.224C11.1584 42.2233 11.9389 41.5989 13.4993 40.3506Z" stroke="#03335C" stroke-width="3" stroke-linecap="round" stroke-linejoin="round"/>
</svg>
