<svg width="50" height="50" viewBox="0 0 50 50" fill="none" xmlns="http://www.w3.org/2000/svg">
<path d="M20.8171 10.9823C20.2476 9.55857 18.8687 8.625 17.3353 8.625H12.1776C10.2156 8.625 8.625 10.2152 8.625 12.1772C8.625 28.8548 22.1452 42.375 38.8228 42.375C40.7848 42.375 42.375 40.7843 42.375 38.8222L42.3759 33.6637C42.3759 32.1303 41.4425 30.7516 40.0188 30.1821L35.0755 28.2055C33.7966 27.694 32.3405 27.9242 31.2824 28.806L30.0066 29.87C28.5166 31.1117 26.3243 31.0129 24.9529 29.6415L21.3604 26.0457C19.989 24.6743 19.8876 22.4838 21.1293 20.9938L22.1931 19.7181C23.0749 18.6599 23.3072 17.2034 22.7956 15.9245L20.8171 10.9823Z" stroke="#991B1B" stroke-width="3" stroke-linecap="round" stroke-linejoin="round"/>
</svg>
