<svg width="50" height="50" viewBox="0 0 50 50" fill="none" xmlns="http://www.w3.org/2000/svg">
<path d="M40.5 34.8753V24.4729C40.5 23.471 40.4991 22.9698 40.3773 22.5036C40.2694 22.0905 40.0921 21.6995 39.8523 21.3462C39.5817 20.9475 39.2054 20.6169 38.4514 19.9572L29.4514 12.0822C28.0515 10.8573 27.3516 10.2451 26.5638 10.0122C25.8697 9.8069 25.1299 9.8069 24.4358 10.0122C23.6486 10.2449 22.9497 10.8565 21.5519 12.0796L12.549 19.9572C11.795 20.6169 11.4188 20.9475 11.1482 21.3462C10.9084 21.6995 10.7298 22.0905 10.6218 22.5036C10.5 22.9698 10.5 23.471 10.5 24.4729V34.8753C10.5 36.6226 10.5 37.4959 10.7855 38.185C11.1661 39.1039 11.8956 39.8348 12.8145 40.2154C13.5036 40.5009 14.3772 40.5009 16.1245 40.5009C17.8718 40.5009 18.7464 40.5009 19.4355 40.2154C20.3544 39.8348 21.0838 39.1041 21.4644 38.1852C21.7498 37.4961 21.75 36.6224 21.75 34.8751V33.0001C21.75 30.9291 23.4289 29.2501 25.5 29.2501C27.5711 29.2501 29.25 30.9291 29.25 33.0001V34.8751C29.25 36.6224 29.25 37.4961 29.5355 38.1852C29.9161 39.1041 30.6456 39.8348 31.5645 40.2154C32.2536 40.5009 33.1272 40.5009 34.8745 40.5009C36.6218 40.5009 37.4964 40.5009 38.1855 40.2154C39.1044 39.8348 39.8338 39.1039 40.2144 38.185C40.4998 37.4959 40.5 36.6226 40.5 34.8753Z" stroke="#03335C" stroke-width="3" stroke-linecap="round" stroke-linejoin="round"/>
</svg>
