<svg width="50" height="50" viewBox="0 0 50 50" fill="none" xmlns="http://www.w3.org/2000/svg">
<g clip-path="url(#clip0_1664_246)">
<path d="M3 24.8529C3 15.4942 3 10.8148 6.29504 7.90739C9.59011 5 14.8934 5 25.5 5C36.1065 5 41.4099 5 44.7051 7.90739C48 10.8148 48 15.4942 48 24.8529C48 34.2116 48 38.8911 44.7051 41.7986C41.4099 44.7059 36.1065 44.7059 25.5 44.7059C14.8934 44.7059 9.59011 44.7059 6.29504 41.7986C3 38.8911 3 34.2116 3 24.8529Z" stroke="white" stroke-width="3"/>
<path d="M36.5283 25.4045H13.5871M36.5283 25.4045C36.5283 23.3965 30.8093 19.6449 29.3592 18.2354M36.5283 25.4045C36.5283 27.4124 30.8093 31.1641 29.3592 32.5736" stroke="white" stroke-width="3" stroke-linecap="round" stroke-linejoin="round"/>
</g>
<defs>
<clipPath id="clip0_1664_246">
<rect width="50" height="50" fill="white"/>
</clipPath>
</defs>
</svg>
