<svg width="50" height="50" viewBox="0 0 50 50" fill="none" xmlns="http://www.w3.org/2000/svg">
<path d="M18 17.941H15.0312C13.1407 17.941 12.1955 17.941 11.4316 18.1944C9.92827 18.693 8.74899 19.877 8.25236 21.3862C8 22.1532 8 23.1022 8 25.0002C8 26.8982 8 27.8472 8.25236 28.6141C8.74899 30.1234 9.92827 31.3074 11.4316 31.806C12.1955 32.0593 13.1407 32.0593 15.0312 32.0593H18.5896C19.2913 32.0593 19.6422 32.0593 19.9664 32.1485C20.2537 32.2275 20.5246 32.3574 20.7663 32.532C21.0392 32.7292 21.2597 33.0032 21.7007 33.5511L25.8888 38.7545C28.0721 41.4669 29.1637 42.8232 30.1201 42.9708C30.948 43.0986 31.7846 42.8017 32.3486 42.1798C33 41.4615 33 39.7178 33 36.2304V32.5299M33 21.2353V12.3944C33 10.0444 33 8.86934 32.6939 8.30685C32.0823 7.18313 30.7262 6.70179 29.547 7.18991C28.9568 7.43424 28.2212 8.34815 26.75 10.176L25.1875 12.1172M8 7.43076L43 42.5696" stroke="white" stroke-width="3" stroke-linecap="round" stroke-linejoin="round"/>
</svg>
