<svg width="50" height="50" viewBox="0 0 50 50" fill="none" xmlns="http://www.w3.org/2000/svg">
<g clip-path="url(#clip0_1664_288)">
<path d="M18.6833 18.5092C19.0913 17.2519 19.8387 16.1331 20.8435 15.2743C21.8484 14.4156 23.0724 13.8513 24.3779 13.6441C25.6833 13.437 27.0199 13.5947 28.2412 14.1003C29.4625 14.6058 30.5201 15.4398 31.2973 16.509C32.0744 17.5782 32.5398 18.8411 32.6437 20.1588C32.7475 21.4765 32.4847 22.7977 31.8848 23.9754C31.2848 25.1532 30.3718 26.1414 29.2448 26.8321C28.1179 27.5228 26.8218 27.8883 25.5 27.8883V30.2783M25.5 47C13.6259 47 4 37.3741 4 25.5C4 13.6259 13.6259 4 25.5 4C37.3741 4 47 13.6259 47 25.5C47 37.3741 37.3741 47 25.5 47ZM25.619 37.4444V37.6833L25.381 37.6838V37.4444H25.619Z" stroke="#1B5886" stroke-width="3" stroke-linecap="round" stroke-linejoin="round"/>
</g>
<defs>
<clipPath id="clip0_1664_288">
<rect width="50" height="50" fill="white"/>
</clipPath>
</defs>
</svg>
