<svg width="50" height="50" viewBox="0 0 50 50" fill="none" xmlns="http://www.w3.org/2000/svg">
<path d="M38.2875 12.308C40.1608 14.0549 41.6563 16.1672 42.6818 18.5144C43.7073 20.8616 44.2409 23.394 44.2499 25.9555C44.2588 28.5169 43.7429 31.053 42.7338 33.4073C41.7247 35.7617 40.244 37.8843 38.3829 39.6442M33.1725 17.7932C34.2965 18.8413 35.1938 20.1087 35.8091 21.517C36.4244 22.9253 36.7446 24.4448 36.7499 25.9817C36.7553 27.5185 36.4457 29.0402 35.8403 30.4528C35.2348 31.8654 34.3464 33.1389 33.2297 34.1949M17.0256 32.4088L20.1666 36.2959C21.804 38.3222 22.6228 39.3353 23.3401 39.4456C23.961 39.5411 24.5885 39.3193 25.0114 38.8547C25.5 38.3181 25.5 37.0155 25.5 34.4103V17.6315C25.5 15.0263 25.5 13.7237 25.0114 13.1871C24.5885 12.7226 23.961 12.5007 23.3401 12.5962C22.6228 12.7065 21.8041 13.7197 20.1666 15.746L17.0256 19.633C16.6948 20.0424 16.5294 20.2471 16.3247 20.3944C16.1434 20.5248 15.9402 20.6219 15.7248 20.6809C15.4816 20.7475 15.2185 20.7475 14.6922 20.7475H12.0234C10.6056 20.7475 9.89662 20.7475 9.32369 20.9368C8.1962 21.3092 7.31174 22.1937 6.93927 23.3212C6.75 23.8941 6.75 24.603 6.75 26.0209C6.75 27.4388 6.75 28.1477 6.93927 28.7207C7.31174 29.8482 8.1962 30.7326 9.32369 31.1051C9.89662 31.2944 10.6056 31.2944 12.0234 31.2944H14.6922C15.2185 31.2944 15.4816 31.2944 15.7248 31.361C15.9402 31.42 16.1434 31.517 16.3247 31.6475C16.5294 31.7948 16.6948 31.9995 17.0256 32.4088Z" stroke="#4A759A" stroke-width="3" stroke-linecap="round" stroke-linejoin="round"/>
</svg>
