<svg width="50" height="50" viewBox="0 0 50 50" fill="none" xmlns="http://www.w3.org/2000/svg">
<path d="M9.5 17H39.5M9.5 17V33.5004C9.5 35.6006 9.5 36.6501 9.90873 37.4523C10.2683 38.1579 10.8415 38.7322 11.5471 39.0917C12.3485 39.5 13.3981 39.5 15.4942 39.5H33.5058C35.6019 39.5 36.65 39.5 37.4514 39.0917C38.157 38.7322 38.7321 38.1579 39.0917 37.4523C39.5 36.6509 39.5 35.6028 39.5 33.5067V17M9.5 17V15.5004C9.5 13.4002 9.5 12.3493 9.90873 11.5471C10.2683 10.8415 10.8415 10.2683 11.5471 9.90873C12.3493 9.5 13.4002 9.5 15.5004 9.5H17M39.5 17V15.4942C39.5 13.3981 39.5 12.3485 39.0917 11.5471C38.7321 10.8415 38.157 10.2683 37.4514 9.90873C36.6492 9.5 35.6006 9.5 33.5004 9.5H32M32 5.75V9.5M32 9.5H17M17 5.75V9.5" stroke="#013C6D" stroke-width="3" stroke-linecap="round" stroke-linejoin="round"/>
</svg>
