<svg width="50" height="50" viewBox="0 0 50 50" fill="none" xmlns="http://www.w3.org/2000/svg">
<g clip-path="url(#clip0_1666_267)">
<rect x="6" y="6" width="38" height="38" rx="4" stroke="#FF2B3A" stroke-width="2"/>
<path d="M18.25 18.3333V31.4444C18.25 32.689 18.25 33.3109 18.4952 33.7862C18.711 34.2044 19.0549 34.545 19.4783 34.758C19.9591 35 20.5889 35 21.8465 35H28.1535C29.4111 35 30.04 35 30.5208 34.758C30.9442 34.545 31.2893 34.2044 31.505 33.7862C31.75 33.3113 31.75 32.69 31.75 31.4479V18.3333M18.25 18.3333H20.5M18.25 18.3333H16M20.5 18.3333H29.5M20.5 18.3333C20.5 17.2979 20.5 16.7805 20.6713 16.3721C20.8996 15.8276 21.3374 15.3947 21.8887 15.1692C22.3022 15 22.8266 15 23.875 15H26.125C27.1734 15 27.6976 15 28.111 15.1692C28.6624 15.3947 29.1003 15.8276 29.3286 16.3721C29.4999 16.7805 29.5 17.2979 29.5 18.3333M29.5 18.3333H31.75M31.75 18.3333H34" stroke="#FF2B3A" stroke-width="3" stroke-linecap="round" stroke-linejoin="round"/>
</g>
<defs>
<clipPath id="clip0_1666_267">
<rect width="50" height="50" fill="white"/>
</clipPath>
</defs>
</svg>
