<svg width="50" height="50" viewBox="0 0 50 50" fill="none" xmlns="http://www.w3.org/2000/svg">
<rect x="6" y="6" width="38" height="38" rx="4" stroke="#ECA017" stroke-width="2"/>
<path d="M16 34H34M16 34V29.3805L25 20.1415M16 34L20.5 34L29.5 24.761M25 20.1415L28.2272 16.8285L28.2291 16.8265C28.6734 16.3705 28.8959 16.1421 29.1524 16.0565C29.3784 15.9812 29.6218 15.9812 29.8477 16.0565C30.104 16.142 30.3263 16.3702 30.7699 16.8256L32.7272 18.8348C33.1727 19.2922 33.3956 19.521 33.479 19.7847C33.5524 20.0166 33.5524 20.2665 33.479 20.4984C33.3956 20.7619 33.1731 20.9903 32.7282 21.447L32.7272 21.448L29.5 24.761M25 20.1415L29.5 24.761" stroke="#ECA017" stroke-width="3" stroke-linecap="round" stroke-linejoin="round"/>
</svg>
