<svg width="50" height="50" viewBox="0 0 50 50" fill="none" xmlns="http://www.w3.org/2000/svg">
<g opacity="0.5">
<path d="M44 8.90794C44 7.54011 43.9991 6.85569 43.7334 6.33325C43.4997 5.8737 43.1282 5.50035 42.6696 5.2662C42.1482 5 41.4642 5 40.099 5H8.89905C7.53392 5 6.85204 5 6.33063 5.2662C5.87198 5.50035 5.49936 5.8737 5.26567 6.33325C5 6.85569 5 7.54012 5 8.90794V10.7086C5 11.3059 5 11.6048 5.06735 11.8859C5.12706 12.1351 5.22579 12.3732 5.35944 12.5917C5.51013 12.8381 5.72127 13.0496 6.14258 13.4718L18.483 25.8366C18.9046 26.2589 19.1142 26.469 19.2649 26.7155C19.3986 26.934 19.4986 27.1728 19.5583 27.4221C19.625 27.7003 19.625 27.9956 19.625 28.5809V40.1962C19.625 42.2898 19.625 43.3372 20.0651 43.9676C20.4493 44.5182 21.0422 44.8854 21.7054 44.9836C22.465 45.096 23.4 44.6283 25.2689 43.6921L27.2189 42.7151C28.0014 42.3231 28.3918 42.1263 28.6777 41.8338C28.9305 41.5752 29.1239 41.2646 29.2417 40.9224C29.3749 40.5354 29.375 40.0959 29.375 39.2192V28.5991C29.375 28.0017 29.375 27.7031 29.4423 27.4221C29.5021 27.1728 29.6008 26.934 29.7344 26.7155C29.8842 26.4706 30.0932 26.2611 30.5092 25.8444L30.5176 25.8366L42.858 13.4718C43.2796 13.0494 43.4892 12.8382 43.6399 12.5917C43.7736 12.3732 43.8736 12.1351 43.9333 11.8859C44 11.6077 44 11.312 44 10.7267V8.90794Z" stroke="#373737" stroke-width="5" stroke-linecap="round" stroke-linejoin="round"/>
</g>
</svg>
