<svg width="50" height="50" viewBox="0 0 50 50" fill="none" xmlns="http://www.w3.org/2000/svg">
<path d="M17.3662 18.184C17.7932 16.8683 18.5754 15.6974 19.627 14.7987C20.6785 13.9 21.9595 13.3094 23.3257 13.0927C24.6919 12.8759 26.0905 13.041 27.3687 13.5701C28.6468 14.0991 29.7536 14.9719 30.5669 16.0908C31.3802 17.2098 31.8672 18.5314 31.9759 19.9104C32.0846 21.2894 31.8096 22.672 31.1817 23.9045C30.5538 25.1371 29.5984 26.1712 28.419 26.894C27.2396 27.6169 25.8833 27.9994 24.5 27.9994V30.5006M24.5 48C12.0736 48 2 37.9264 2 25.5C2 13.0736 12.0736 3 24.5 3C36.9264 3 47 13.0736 47 25.5C47 37.9264 36.9264 48 24.5 48ZM24.6245 38V38.25L24.3755 38.2505V38H24.6245Z" stroke="#1F2937" stroke-width="3" stroke-linecap="round" stroke-linejoin="round"/>
</svg>
