<svg width="50" height="50" viewBox="0 0 50 50" fill="none" xmlns="http://www.w3.org/2000/svg">
<g clip-path="url(#clip0_1666_291)">
<path d="M8.49902 43.5198L12.3089 40.4934L12.3369 40.4721C13.1312 39.8411 13.532 39.5227 13.9792 39.2959C14.3804 39.0924 14.8082 38.9442 15.2495 38.8542C15.7469 38.7529 16.2651 38.7529 17.3052 38.7529H39.0077C41.8025 38.7529 43.2015 38.7529 44.2701 38.2123C45.2109 37.7363 45.9762 36.976 46.4556 36.0419C47 34.9809 47 33.5933 47 30.8182V11.9358C47 9.16079 47 7.77119 46.4556 6.71022C45.9762 5.77605 45.2093 5.0171 44.2685 4.54112C43.1989 4 41.8008 4 39.0005 4H10.0005C7.20023 4 5.79905 4 4.72949 4.54112C3.78868 5.0171 3.02433 5.77605 2.54497 6.71022C2 7.77223 2 9.16351 2 11.944V40.419C2 43.0645 2 44.3869 2.54614 45.0663C3.02111 45.6571 3.74109 46.0008 4.50244 46C5.37788 45.9991 6.4186 45.1724 8.49902 43.5198Z" stroke="white" stroke-width="5" stroke-linecap="round" stroke-linejoin="round"/>
</g>
<defs>
<clipPath id="clip0_1666_291">
<rect width="50" height="50" fill="white"/>
</clipPath>
</defs>
</svg>
