<svg width="50" height="50" viewBox="0 0 50 50" fill="none" xmlns="http://www.w3.org/2000/svg">
<path d="M32.5005 38V40.5C32.5005 44.6421 29.1426 48 25.0003 48C20.8581 48 17.5002 44.6421 17.5002 40.5V38M32.5005 38H17.5002M32.5005 38H41.4769C42.4332 38 42.9137 38 43.3009 37.8694C44.0406 37.6199 44.6194 37.0391 44.8689 36.2995C45 35.9107 45 35.4287 45 34.4648C45 34.0431 44.9995 33.8322 44.9665 33.6311C44.9042 33.2511 44.7567 32.8908 44.5321 32.578C44.4134 32.4128 44.2626 32.2619 43.9652 31.9646L42.9914 30.9907C42.6772 30.6765 42.5007 30.2503 42.5007 29.806V20.5C42.5007 10.835 34.6655 2.99998 25.0003 3C15.3352 3.00002 7.50004 10.835 7.50004 20.5V29.8061C7.50004 30.2504 7.32315 30.6765 7.00895 30.9907L6.03517 31.9645C5.73691 32.2627 5.58761 32.4126 5.46876 32.5781C5.24414 32.8909 5.09537 33.2511 5.033 33.6311C5 33.8322 5 34.0431 5 34.4649C5 35.4288 5 35.9106 5.13113 36.2994C5.38063 37.039 5.96201 37.6199 6.70169 37.8694C7.08894 38 7.56758 38 8.52395 38H17.5002" stroke="#1F2937" stroke-width="3" stroke-linecap="round" stroke-linejoin="round"/>
</svg>
