<svg width="50" height="50" viewBox="0 0 50 50" fill="none" xmlns="http://www.w3.org/2000/svg">
<path d="M2.00013 37.5002C2 37.3387 2 37.1723 2 37.0005V13.0005C2 10.2002 2 8.79905 2.54497 7.72949C3.02433 6.78868 3.78868 6.02433 4.72949 5.54497C5.79905 5 7.20023 5 10.0005 5H39.0005C41.8008 5 43.2002 5 44.2697 5.54497C45.2105 6.02433 45.9762 6.78868 46.4556 7.72949C47 8.798 47 10.1975 47 12.9923V37.0077C47 38.2203 47 39.1698 46.9555 39.9435M2.00013 37.5002C2.00205 39.971 2.03343 41.2645 2.54497 42.2685C3.02433 43.2093 3.78868 43.9762 4.72949 44.4556C5.798 45 7.19749 45 9.99228 45H39.0089C41.8037 45 43.2012 45 44.2697 44.4556C45.2105 43.9762 45.9762 43.2093 46.4556 42.2685C46.7638 41.6636 46.8975 40.9532 46.9555 39.9435M2.00013 37.5002L13.9199 23.5938L13.9235 23.5899C14.9807 22.3565 15.5102 21.7388 16.1382 21.5161C16.6899 21.3205 17.2922 21.3251 17.8411 21.5283C18.4666 21.7599 18.9876 22.3847 20.0298 23.6353L26.7077 31.6488C27.6724 32.8064 28.1575 33.3886 28.7466 33.6222C29.2661 33.8283 29.8391 33.8515 30.3752 33.6933C30.9855 33.5132 31.5227 32.9761 32.5969 31.9019L33.8396 30.6592C34.9333 29.5654 35.4802 29.019 36.0992 28.8403C36.6428 28.6834 37.2241 28.7171 37.7471 28.9331C38.3426 29.179 38.8255 29.7809 39.7917 30.9888L46.9555 39.9435M46.9555 39.9435L46.9999 39.999M32 20C30.6193 20 29.5 18.8807 29.5 17.5C29.5 16.1193 30.6193 15 32 15C33.3807 15 34.5 16.1193 34.5 17.5C34.5 18.8807 33.3807 20 32 20Z" stroke="#373737" stroke-width="3" stroke-linecap="round" stroke-linejoin="round"/>
</svg>
