<svg width="200" height="200" viewBox="0 0 200 200" fill="none" xmlns="http://www.w3.org/2000/svg">
<path d="M64 140.5H56.5C56.5 143.125 57.8724 145.559 60.1184 146.917C62.3645 148.276 65.1574 148.361 67.4822 147.143L64 140.5ZM2.5 190C2.5 194.142 5.85786 197.5 10 197.5C14.1421 197.5 17.5 194.142 17.5 190H10H2.5ZM93.1853 125.2L96.6675 131.843L96.9463 131.697L97.2118 131.528L93.1853 125.2ZM107.122 147.299L110.644 153.92L110.875 153.797L111.097 153.659L107.122 147.299ZM70.8784 166.576L67.3565 159.954L67.1254 160.077L66.9034 160.216L70.8784 166.576ZM45.71 160.243L52.2218 156.521L52.2218 156.521L45.71 160.243ZM43.5118 141.279C41.4567 137.683 36.8753 136.433 33.279 138.488C29.6826 140.543 28.4331 145.125 30.4882 148.721L37 145L43.5118 141.279ZM111.4 129.5L117.831 125.642L117.831 125.642L111.4 129.5ZM71.5 172C71.5 167.858 68.1421 164.5 64 164.5C59.8579 164.5 56.5 167.858 56.5 172H64H71.5ZM56.5 190C56.5 194.142 59.8579 197.5 64 197.5C68.1421 197.5 71.5 194.142 71.5 190H64H56.5ZM107.173 118.473L103.146 124.801L115.801 132.854L119.827 126.527L113.5 122.5L107.173 118.473ZM151.327 77.0266C153.551 73.532 152.521 68.8963 149.027 66.6725C145.532 64.4487 140.896 65.4789 138.673 68.9734L145 73L151.327 77.0266ZM38.5 32.5C38.5 36.6421 41.8579 40 46 40C50.1421 40 53.5 36.6421 53.5 32.5H46H38.5ZM163 92.5C158.858 92.5 155.5 95.8579 155.5 100C155.5 104.142 158.858 107.5 163 107.5V100V92.5ZM82 38.5C77.8579 38.5 74.5 41.8579 74.5 46C74.5 50.1421 77.8579 53.5 82 53.5V46V38.5ZM154 53.5C158.142 53.5 161.5 50.1421 161.5 46C161.5 41.8579 158.142 38.5 154 38.5V46V53.5ZM82 65.5C77.8579 65.5 74.5 68.8579 74.5 73C74.5 77.1421 77.8579 80.5 82 80.5V73V65.5ZM118 80.5C122.142 80.5 125.5 77.1421 125.5 73C125.5 68.8579 122.142 65.5 118 65.5V73V80.5ZM55 73H47.5C47.5 78.799 42.799 83.5 37 83.5V91V98.5C51.0833 98.5 62.5 87.0833 62.5 73H55ZM37 91V83.5C31.201 83.5 26.5 78.799 26.5 73H19H11.5C11.5 87.0833 22.9167 98.5 37 98.5V91ZM19 73H26.5C26.5 67.201 31.201 62.5 37 62.5V55V47.5C22.9167 47.5 11.5 58.9167 11.5 73H19ZM37 55V62.5C42.799 62.5 47.5 67.201 47.5 73H55H62.5C62.5 58.9167 51.0833 47.5 37 47.5V55ZM64 140.5H71.5V136H64H56.5V140.5H64ZM10 136H2.5V190H10H17.5V136H10ZM64 140.5L67.4822 147.143L96.6675 131.843L93.1853 125.2L89.703 118.558L60.5178 133.857L64 140.5ZM107.122 147.299L103.6 140.677L67.3565 159.954L70.8784 166.576L74.4003 173.198L110.644 153.92L107.122 147.299ZM45.71 160.243L52.2218 156.521L43.5118 141.279L37 145L30.4882 148.721L39.1982 163.964L45.71 160.243ZM93.1853 125.2L97.2118 131.528C99.8523 129.847 103.359 130.675 104.969 133.359L111.4 129.5L117.831 125.642C111.879 115.722 98.9186 112.662 89.1587 118.873L93.1853 125.2ZM70.8784 166.576L66.9034 160.216C61.8481 163.376 55.1796 161.697 52.2218 156.521L45.71 160.243L39.1982 163.964C46.3812 176.534 62.5762 180.609 74.8534 172.936L70.8784 166.576ZM10 136H17.5C17.5 125.23 26.2304 116.5 37 116.5V109V101.5C17.9462 101.5 2.5 116.946 2.5 136H10ZM111.4 129.5L104.969 133.359C106.529 135.96 105.719 139.331 103.147 140.939L107.122 147.299L111.097 153.659C120.604 147.717 123.599 135.255 117.831 125.642L111.4 129.5ZM64 136H71.5C71.5 116.946 56.0538 101.5 37 101.5V109V116.5C47.7696 116.5 56.5 125.23 56.5 136H64ZM64 172H56.5V190H64H71.5V172H64ZM113.5 122.5L119.827 126.527L151.327 77.0266L145 73L138.673 68.9734L107.173 118.473L113.5 122.5ZM46 32.5H53.5V28H46H38.5V32.5H46ZM64 10V17.5H172V10V2.5H64V10ZM190 28H182.5V82H190H197.5V28H190ZM172 100V92.5H163V100V107.5H172V100ZM190 82H182.5C182.5 87.799 177.799 92.5 172 92.5V100V107.5C186.083 107.5 197.5 96.0833 197.5 82H190ZM172 10V17.5C177.799 17.5 182.5 22.201 182.5 28H190H197.5C197.5 13.9167 186.083 2.5 172 2.5V10ZM46 28H53.5C53.5 22.201 58.201 17.5 64 17.5V10V2.5C49.9167 2.5 38.5 13.9167 38.5 28H46ZM82 46V53.5H154V46V38.5H82V46ZM82 73V80.5H118V73V65.5H82V73Z" fill="white"/>
</svg>
