<svg width="150" height="150" viewBox="0 0 150 150" fill="none" xmlns="http://www.w3.org/2000/svg">
<g filter="url(#filter0_d_561_95)">
<path d="M130 53.2388V75.3192M65.375 39.4385H46.4C37.1591 39.4385 32.5387 39.4385 29.0091 41.2435C25.9045 42.8312 23.3803 45.3646 21.7984 48.4806C20 52.0231 20 56.6604 20 65.935L20 72.5591C20 77.7032 20 80.2753 20.8373 82.3041C21.9538 85.0093 24.0952 87.1585 26.7905 88.279C28.812 89.1194 31.3746 89.1194 36.5 89.1194V112.58C36.5 113.861 36.5 114.502 36.553 115.042C37.0674 120.284 41.1993 124.431 46.4218 124.947C46.9596 125 47.5981 125 48.875 125C50.1519 125 50.7904 125 51.3282 124.947C56.5507 124.431 60.6827 120.284 61.197 115.042C61.25 114.502 61.25 113.861 61.25 112.58V89.1194H65.375C75.0904 89.1194 86.9749 94.3463 96.1436 99.3627C101.493 102.289 104.167 103.752 105.919 103.537C107.543 103.337 108.771 102.606 109.723 101.27C110.75 99.8292 110.75 96.9469 110.75 91.1823V37.3756C110.75 31.611 110.75 28.7287 109.723 27.2882C108.771 25.9524 107.543 25.2204 105.919 25.0208C104.167 24.8054 101.493 26.2687 96.1436 29.1952C86.9748 34.2116 75.0903 39.4385 65.375 39.4385Z" stroke="white" stroke-width="5" stroke-linecap="round" stroke-linejoin="round" shape-rendering="crispEdges"/>
</g>
<defs>
<filter id="filter0_d_561_95" x="13.5" y="22.5004" width="123" height="113" filterUnits="userSpaceOnUse" color-interpolation-filters="sRGB">
<feFlood flood-opacity="0" result="BackgroundImageFix"/>
<feColorMatrix in="SourceAlpha" type="matrix" values="0 0 0 0 0 0 0 0 0 0 0 0 0 0 0 0 0 0 127 0" result="hardAlpha"/>
<feOffset dy="4"/>
<feGaussianBlur stdDeviation="2"/>
<feComposite in2="hardAlpha" operator="out"/>
<feColorMatrix type="matrix" values="0 0 0 0 0 0 0 0 0 0 0 0 0 0 0 0 0 0 0.25 0"/>
<feBlend mode="normal" in2="BackgroundImageFix" result="effect1_dropShadow_561_95"/>
<feBlend mode="normal" in="SourceGraphic" in2="effect1_dropShadow_561_95" result="shape"/>
</filter>
</defs>
</svg>
