<svg width="150" height="150" viewBox="0 0 150 150" fill="none" xmlns="http://www.w3.org/2000/svg">
<g filter="url(#filter0_d_561_81)">
<path d="M58.2857 102.778H91.7143M58.2857 86.1111H91.7143M80.5735 25.0048C80.0413 25 79.4425 25 78.7591 25H53.8297C47.5891 25 44.4665 25 42.0829 26.211C39.9862 27.2763 38.2828 28.9748 37.2145 31.0655C36 33.4423 36 36.5561 36 42.7789V107.223C36 113.446 36 116.556 37.2145 118.933C38.2828 121.023 39.9862 122.725 42.0829 123.79C44.4641 125 47.583 125 53.8115 125L96.1887 125C102.417 125 105.531 125 107.913 123.79C110.009 122.725 111.718 121.023 112.787 118.933C114 116.558 114 113.453 114 107.242V60.1427C114 59.4612 113.999 58.8641 113.995 58.3333M80.5735 25.0048C82.1639 25.0193 83.1662 25.0781 84.127 25.3082C85.264 25.5804 86.3537 26.0292 87.3507 26.6385C88.4749 27.3254 89.4401 28.2879 91.3661 30.2083L108.779 47.5721C110.707 49.4938 111.665 50.452 112.354 51.5733C112.965 52.5674 113.417 53.6514 113.69 54.7852C113.921 55.7433 113.98 56.7475 113.995 58.3333M80.5735 25.0048L80.5714 40.5567C80.5714 46.7795 80.5714 49.8897 81.7859 52.2665C82.8542 54.3572 84.5576 56.0582 86.6543 57.1235C89.0355 58.3333 92.1545 58.3333 98.3828 58.3333H113.995" stroke="white" stroke-width="5" stroke-linecap="round" stroke-linejoin="round" shape-rendering="crispEdges"/>
</g>
<defs>
<filter id="filter0_d_561_81" x="29.5" y="22.5" width="91" height="113" filterUnits="userSpaceOnUse" color-interpolation-filters="sRGB">
<feFlood flood-opacity="0" result="BackgroundImageFix"/>
<feColorMatrix in="SourceAlpha" type="matrix" values="0 0 0 0 0 0 0 0 0 0 0 0 0 0 0 0 0 0 127 0" result="hardAlpha"/>
<feOffset dy="4"/>
<feGaussianBlur stdDeviation="2"/>
<feComposite in2="hardAlpha" operator="out"/>
<feColorMatrix type="matrix" values="0 0 0 0 0 0 0 0 0 0 0 0 0 0 0 0 0 0 0.25 0"/>
<feBlend mode="normal" in2="BackgroundImageFix" result="effect1_dropShadow_561_81"/>
<feBlend mode="normal" in="SourceGraphic" in2="effect1_dropShadow_561_81" result="shape"/>
</filter>
</defs>
</svg>
