<svg width="20" height="18" viewBox="0 0 20 18" fill="none" xmlns="http://www.w3.org/2000/svg">
<g clip-path="url(#clip0_1657_231)">
<path d="M10 4.875C10 5.31813 9.99825 5.75103 10.0459 6.10547C10.0974 6.48867 10.2227 6.92585 10.5859 7.28906C10.9492 7.65228 11.3863 7.77758 11.7695 7.8291C12.124 7.87675 12.5569 7.875 13 7.875H18V13C18 15.4749 17.9998 16.7126 17.1211 17.4814C16.2424 18.2501 14.8281 18.25 12 18.25H8C5.17186 18.25 3.75761 18.2501 2.87891 17.4814C2.00023 16.7126 2 15.4749 2 13V6C2 3.52513 2.00023 2.2874 2.87891 1.51855C3.75761 0.749948 5.17186 0.75 8 0.75H10V4.875ZM7 12.875C6.44772 12.875 6 13.3227 6 13.875C6 14.4273 6.44772 14.875 7 14.875H11C11.5523 14.875 12 14.4273 12 13.875C12 13.3227 11.5523 12.875 11 12.875H7ZM7 9.375C6.44772 9.375 6 9.82272 6 10.375C6 10.9273 6.44772 11.375 7 11.375H13C13.5523 11.375 14 10.9273 14 10.375C14 9.82272 13.5523 9.375 13 9.375H7ZM12 0.756836C12.4113 0.76575 12.6838 0.791301 12.9365 0.882812C13.3041 1.01602 13.5938 1.26959 14.1719 1.77539L16.8281 4.09961C17.4062 4.60541 17.6954 4.85906 17.8477 5.18066C17.9397 5.37517 17.9739 5.5829 17.9883 5.875H13C12.5005 5.875 12.2263 5.8732 12.0361 5.84766C12.0335 5.8473 12.0308 5.84606 12.0283 5.8457C12.028 5.84353 12.0276 5.84112 12.0273 5.83887C12.0018 5.64868 12 5.3745 12 4.875V0.756836Z" fill="white"/>
</g>
<defs>
<clipPath id="clip0_1657_231">
<rect width="20" height="18" fill="white"/>
</clipPath>
</defs>
</svg>
