<svg width="200" height="200" viewBox="0 0 200 200" fill="none" xmlns="http://www.w3.org/2000/svg">
<g clip-path="url(#clip0_1657_231)">
<path d="M101.334 66.6494C101.334 66.9087 101.318 67.858 101.438 68.7461C101.586 69.85 102.051 71.888 103.823 73.6602C105.595 75.4322 107.633 75.8974 108.737 76.0459C109.625 76.1653 110.574 76.1494 110.834 76.1494H170.149V124.3C170.149 146.786 170.15 158.029 162.453 165.015C154.756 172 142.369 172 117.594 172H82.5557C57.7808 172 45.3929 172 37.6963 165.015C29.9998 158.029 30 146.786 30 124.3V60.7002C30 38.2143 29.9998 26.9709 37.6963 19.9854C45.3929 12.9999 57.7808 13 82.5557 13H101.334V66.6494ZM73.7969 124.75C69.6547 124.75 66.2969 128.108 66.2969 132.25C66.2969 136.392 69.6547 139.75 73.7969 139.75H108.834C112.976 139.75 116.334 136.392 116.334 132.25C116.334 128.108 112.976 124.75 108.834 124.75H73.7969ZM73.7969 92.9502C69.6547 92.9502 66.2969 96.3081 66.2969 100.45C66.297 104.592 69.6548 107.95 73.7969 107.95H126.353C130.495 107.95 133.852 104.592 133.853 100.45C133.853 96.3081 130.495 92.9503 126.353 92.9502H73.7969ZM116.334 13.0166C120.662 13.0677 123.337 13.2839 125.801 14.21C129.02 15.4203 131.552 17.719 136.615 22.3145L159.888 43.4355C164.951 48.0311 167.483 50.3291 168.816 53.251C169.775 55.3521 170.042 57.623 170.118 61.1494H116.334V13.0166Z" fill="white"/>
</g>
<defs>
<clipPath id="clip0_1657_231">
<rect width="200" height="200" fill="white"/>
</clipPath>
</defs>
</svg>
