<svg width="200" height="200" viewBox="0 0 200 200" fill="none" xmlns="http://www.w3.org/2000/svg">
<path d="M92.5 109.241V180.016L21.8789 135.863C20.9603 135.289 20.5016 135.001 20.251 134.549C20.0004 134.097 20 133.555 20 132.472V62.6816L92.5 109.241ZM180 132.472C180 133.555 180 134.097 179.749 134.549C179.498 135.001 179.04 135.289 178.121 135.863L107.5 180.016V109.241L180 62.6807V132.472ZM100 5C100.574 5 101.089 5.32218 102.12 5.9668L172.264 49.8223L99.999 96.2305L27.7354 49.8223L97.8799 5.9668C98.9109 5.32218 99.4263 5 100 5Z" fill="white"/>
</svg>
