<svg width="20" height="18" viewBox="0 0 20 18" fill="none" xmlns="http://www.w3.org/2000/svg">
<g clip-path="url(#clip0_1657_215)">
<path d="M9 10.5134V17.2292C8.64344 17.0288 8.2263 16.7335 7.6748 16.3396L4.6748 14.196C3.85388 13.6097 3.44331 13.3162 3.22168 12.8855C3.00017 12.4548 3 11.95 3 10.9412V7.05835C3 6.7371 3.00066 6.46701 3.00781 6.23413L9 10.5134ZM16.9912 6.23413C16.9984 6.46701 17 6.73709 17 7.05835V10.9412C17 11.95 16.9998 12.4548 16.7783 12.8855C16.5567 13.3162 16.1461 13.6097 15.3252 14.196L12.3252 16.3396C11.7737 16.7335 11.3566 17.0288 11 17.2292V10.5134L16.9912 6.23413ZM10 0.457764C10.6409 0.457764 11.2025 0.858973 12.3252 1.66089L15.3252 3.80347C15.6532 4.03773 15.9149 4.22614 16.126 4.39429L10 8.77124L3.87305 4.39429C4.08424 4.22602 4.34653 4.03795 4.6748 3.80347L7.6748 1.66089C8.79749 0.858973 9.35907 0.457764 10 0.457764Z" fill="white"/>
</g>
<defs>
<clipPath id="clip0_1657_215">
<rect width="20" height="18" fill="white"/>
</clipPath>
</defs>
</svg>
