<svg width="150" height="150" viewBox="0 0 150 150" fill="none" xmlns="http://www.w3.org/2000/svg">
<g filter="url(#filter0_d_561_105)">
<path d="M100.056 50H125.611C129.14 50 132 52.7982 132 56.25V125L110.706 107.693C109.559 106.761 108.11 106.25 106.619 106.25H55.3333C51.8048 106.25 48.9444 103.452 48.9444 100V81.25M100.056 50V31.25C100.056 27.7982 97.1952 25 93.6667 25H23.3889C19.8604 25 17 27.7982 17 31.25V100.002L38.2942 82.6926C39.4413 81.7603 40.8896 81.25 42.3809 81.25H48.9444M100.056 50V75C100.056 78.4518 97.1951 81.25 93.6667 81.25H48.9444" stroke="white" stroke-width="5" stroke-linecap="round" stroke-linejoin="round" shape-rendering="crispEdges"/>
</g>
<defs>
<filter id="filter0_d_561_105" x="10.5" y="22.5" width="128" height="113" filterUnits="userSpaceOnUse" color-interpolation-filters="sRGB">
<feFlood flood-opacity="0" result="BackgroundImageFix"/>
<feColorMatrix in="SourceAlpha" type="matrix" values="0 0 0 0 0 0 0 0 0 0 0 0 0 0 0 0 0 0 127 0" result="hardAlpha"/>
<feOffset dy="4"/>
<feGaussianBlur stdDeviation="2"/>
<feComposite in2="hardAlpha" operator="out"/>
<feColorMatrix type="matrix" values="0 0 0 0 0 0 0 0 0 0 0 0 0 0 0 0 0 0 0.25 0"/>
<feBlend mode="normal" in2="BackgroundImageFix" result="effect1_dropShadow_561_105"/>
<feBlend mode="normal" in="SourceGraphic" in2="effect1_dropShadow_561_105" result="shape"/>
</filter>
</defs>
</svg>
