<svg width="200" height="200" viewBox="0 0 200 200" fill="none" xmlns="http://www.w3.org/2000/svg">
<path d="M190 100C190 149.706 149.706 190 100 190M190 100C190 50.2944 149.706 10 100 10M190 100C190 85.0883 149.706 73 100 73C50.2944 73 10 85.0883 10 100M190 100C190 114.912 149.706 127 100 127C50.2944 127 10 114.912 10 100M100 190C50.2944 190 10 149.706 10 100M100 190C119.882 190 136 149.706 136 100C136 50.2944 119.882 10 100 10M100 190C80.1177 190 64 149.706 64 100C64 50.2944 80.1177 10 100 10M10 100C10 50.2944 50.2944 10 100 10" stroke="white" stroke-width="15"/>
</svg>
