<svg width="150" height="150" viewBox="0 0 150 150" fill="none" xmlns="http://www.w3.org/2000/svg">
<g filter="url(#filter0_d_561_103)">
<path d="M91.6667 63.889L69.4444 86.1113L58.3333 75.0001M75.0007 125C65.9168 125 57.3986 122.578 50.057 118.343C49.3317 117.925 48.9685 117.716 48.6274 117.622C48.3099 117.534 48.0264 117.504 47.6977 117.527C47.3474 117.551 46.985 117.672 46.2644 117.912L33.4337 122.189L33.4236 122.193C30.7162 123.096 29.36 123.548 28.4587 123.226C27.6733 122.946 27.0544 122.327 26.7744 121.541C26.4532 120.641 26.9038 119.289 27.805 116.585L27.8103 116.568L32.0816 103.755L32.0917 103.728C32.3298 103.014 32.4503 102.652 32.4742 102.303C32.4966 101.975 32.4667 101.689 32.3789 101.372C32.2859 101.035 32.0804 100.679 31.673 99.9724L31.6566 99.944C27.4225 92.6023 25 84.0841 25 75.0001C25 47.3858 47.3858 25 75 25C102.614 25 125 47.3858 125 75.0001C125 102.614 102.615 125 75.0007 125Z" stroke="white" stroke-width="5" stroke-linecap="round" stroke-linejoin="round" shape-rendering="crispEdges"/>
</g>
<defs>
<filter id="filter0_d_561_103" x="18.5" y="22.5" width="113" height="113" filterUnits="userSpaceOnUse" color-interpolation-filters="sRGB">
<feFlood flood-opacity="0" result="BackgroundImageFix"/>
<feColorMatrix in="SourceAlpha" type="matrix" values="0 0 0 0 0 0 0 0 0 0 0 0 0 0 0 0 0 0 127 0" result="hardAlpha"/>
<feOffset dy="4"/>
<feGaussianBlur stdDeviation="2"/>
<feComposite in2="hardAlpha" operator="out"/>
<feColorMatrix type="matrix" values="0 0 0 0 0 0 0 0 0 0 0 0 0 0 0 0 0 0 0.25 0"/>
<feBlend mode="normal" in2="BackgroundImageFix" result="effect1_dropShadow_561_103"/>
<feBlend mode="normal" in="SourceGraphic" in2="effect1_dropShadow_561_103" result="shape"/>
</filter>
</defs>
</svg>
