<svg width="23" height="20" viewBox="0 0 23 20" fill="none" xmlns="http://www.w3.org/2000/svg">
<g clip-path="url(#clip0_1654_242)">
<circle cx="17" cy="14" r="2.5" stroke="white" stroke-width="2"/>
<path d="M19 16L21 18" stroke="white" stroke-width="2" stroke-linecap="round"/>
<path d="M14.7998 1C17.32 1 18.5804 0.999808 19.543 1.49023C20.3897 1.92166 21.0783 2.6103 21.5098 3.45703C22.0002 4.41962 22 5.68003 22 8.2002V11.708C21.1308 9.81501 19.2194 8.5 17 8.5C13.9624 8.5 11.5 10.9624 11.5 14C11.5 16.2197 12.8156 18.131 14.709 19H5.2002C4.08009 19 3.51962 19.0002 3.0918 18.7822C2.71554 18.5905 2.40951 18.2845 2.21777 17.9082C1.99979 17.4804 2 16.9199 2 15.7998V8.2002C2 5.68003 1.99981 4.41962 2.49023 3.45703C2.92166 2.6103 3.6103 1.92166 4.45703 1.49023C5.41962 0.999808 6.68003 1 9.2002 1H14.7998ZM7 11C6.44772 11 6 11.4477 6 12C6 12.5523 6.44772 13 7 13H10C10.5523 13 11 12.5523 11 12C11 11.4477 10.5523 11 10 11H7ZM7 7C6.44772 7 6 7.44772 6 8C6 8.55228 6.44772 9 7 9H13C13.5523 9 14 8.55228 14 8C14 7.44772 13.5523 7 13 7H7Z" fill="white"/>
</g>
<defs>
<clipPath id="clip0_1654_242">
<rect width="23" height="20" fill="white"/>
</clipPath>
</defs>
</svg>
