<svg width="200" height="200" viewBox="0 0 200 200" fill="none" xmlns="http://www.w3.org/2000/svg">
<path d="M10 110.5H2.5V125.5H10V118V110.5ZM190 125.5H197.5V110.5H190V118V125.5ZM73 182.5C68.8579 182.5 65.5 185.858 65.5 190C65.5 194.142 68.8579 197.5 73 197.5V190V182.5ZM127 197.5C131.142 197.5 134.5 194.142 134.5 190C134.5 185.858 131.142 182.5 127 182.5V190V197.5ZM107.5 154C107.5 149.858 104.142 146.5 100 146.5C95.8579 146.5 92.5 149.858 92.5 154H100H107.5ZM37 10V17.5H163V10V2.5H37V10ZM190 37H182.5V127H190H197.5V37H190ZM163 154V146.5H37V154V161.5H163V154ZM10 127H17.5V37H10H2.5V127H10ZM37 154V146.5C26.2304 146.5 17.5 137.77 17.5 127H10H2.5C2.5 146.054 17.9462 161.5 37 161.5V154ZM190 127H182.5C182.5 137.77 173.77 146.5 163 146.5V154V161.5C182.054 161.5 197.5 146.054 197.5 127H190ZM163 10V17.5C173.77 17.5 182.5 26.2304 182.5 37H190H197.5C197.5 17.9462 182.054 2.5 163 2.5V10ZM37 10V2.5C17.9462 2.5 2.5 17.9462 2.5 37H10H17.5C17.5 26.2304 26.2304 17.5 37 17.5V10ZM10 118V125.5H190V118V110.5H10V118ZM73 190V197.5H100V190V182.5H73V190ZM100 190V197.5H127V190V182.5H100V190ZM100 190H107.5V154H100H92.5V190H100Z" fill="white"/>
</svg>
