<svg width="19" height="17" viewBox="0 0 19 17" fill="none" xmlns="http://www.w3.org/2000/svg">
<path d="M1 8.5C1 4.96447 1 3.1967 2.24479 2.09835C3.4896 1 5.49306 1 9.5 1C13.5069 1 15.5104 1 16.7552 2.09835C18 3.1967 18 4.96447 18 8.5C18 12.0355 18 13.8033 16.7552 14.9017C15.5104 16 13.5069 16 9.5 16C5.49306 16 3.4896 16 2.24479 14.9017C1 13.8033 1 12.0355 1 8.5Z" stroke="white"/>
<path d="M13.6667 8.70833H5M13.6667 8.70833C13.6667 7.94978 11.5062 6.53249 10.9583 6M13.6667 8.70833C13.6667 9.46688 11.5062 10.8842 10.9583 11.4167" stroke="white" stroke-linecap="round" stroke-linejoin="round"/>
</svg>
