<svg width="22" height="17" viewBox="0 0 22 17" fill="none" xmlns="http://www.w3.org/2000/svg">
<g clip-path="url(#clip0_1660_242)">
<path d="M21 10C21 12.8284 20.9998 14.2424 20.1211 15.1211C19.2424 15.9998 17.8284 16 15 16H7C4.17157 16 2.75759 15.9998 1.87891 15.1211C1.00023 14.2424 1 12.8284 1 10V8H21V10ZM6 11C5.44772 11 5 11.4477 5 12C5 12.5523 5.44772 13 6 13H6.00977C6.56205 13 7.00977 12.5523 7.00977 12C7.00977 11.4477 6.56205 11 6.00977 11H6ZM15 1C17.8284 1 19.2424 1.00023 20.1211 1.87891C20.8895 2.64729 20.9859 3.82497 20.998 6H1.00195C1.01406 3.82497 1.11052 2.64729 1.87891 1.87891C2.75759 1.00023 4.17157 1 7 1H15Z" fill="white"/>
</g>
<defs>
<clipPath id="clip0_1660_242">
<rect width="22" height="17" fill="white"/>
</clipPath>
</defs>
</svg>
