<svg width="1000" height="1000" viewBox="0 0 1000 1000" fill="none" xmlns="http://www.w3.org/2000/svg">
<path d="M944.417 560.887C944.417 689.073 944.417 753.167 904.595 792.989C864.772 832.812 800.679 832.812 672.492 832.812H309.926C181.739 832.812 117.646 832.812 77.8232 792.989C38.0008 753.167 38 689.073 38 560.887V449.925H944.416L944.417 449.924V560.887ZM264.604 626.529C250.798 626.53 239.604 637.722 239.604 651.529C239.605 665.336 250.798 676.529 264.604 676.529H265.058C278.864 676.529 290.057 665.336 290.058 651.529C290.058 637.722 278.865 626.529 265.058 626.529H264.604ZM672.492 153C800.679 153 864.772 153 904.595 192.822C941.739 229.967 944.235 288.229 944.403 399.925H38.0137C38.1816 288.229 40.6783 229.967 77.8232 192.822C117.646 153 181.739 153 309.926 153H672.492Z" fill="white"/>
</svg>
