<svg width="200" height="200" viewBox="0 0 200 200" fill="none" xmlns="http://www.w3.org/2000/svg">
<g clip-path="url(#clip0_1660_242)">
<g clip-path="url(#clip1_1660_242)">
<path d="M167.275 31.8594C168.205 32.6795 169.084 33.5437 169.957 34.4241C170.202 34.6705 170.446 34.9169 170.699 35.1708C173 37.525 175.026 40.0285 176.975 42.6777C177.134 42.8907 177.293 43.1036 177.456 43.3229C179.886 46.5831 182.062 49.957 184.063 53.4961C184.288 53.8918 184.288 53.8918 184.517 54.2956C190.009 64.0496 193.628 74.8761 195.254 85.9512C195.353 86.624 195.353 86.624 195.454 87.3105C196.052 91.6813 196.149 96.0231 196.14 100.43C196.14 100.798 196.139 101.166 196.139 101.545C196.124 107.651 195.76 113.531 194.508 119.525C194.43 119.905 194.352 120.284 194.272 120.675C191.223 135.02 184.913 148.317 175.855 159.814C175.568 160.182 175.28 160.549 174.984 160.928C174.173 161.941 173.343 162.933 172.498 163.918C172.327 164.119 172.156 164.319 171.979 164.526C168.878 168.132 165.747 171.343 160.751 171.845C157.121 172.01 153.944 170.931 151.128 168.628C148.499 166.136 147.467 163.237 147.341 159.651C147.468 155.111 149.688 151.983 152.852 148.894C165.499 136.344 171.596 117.654 171.762 100.171C171.575 81.3766 164.119 64.3578 151.462 50.6662C148.563 47.5209 147.35 44.8198 147.402 40.5254C147.739 36.5385 149.699 33.9974 152.54 31.3698C157.208 28.2188 162.812 28.5702 167.275 31.8594Z" fill="white"/>
<path d="M49.3518 31.9074C51.7348 34.0212 53.3173 36.7024 53.6214 39.8857C53.6776 45.2543 52.3454 47.8363 48.6465 51.6308C35.582 65.438 28.8781 83.9525 29.2568 102.898C29.6425 113.143 32.1845 123.023 36.709 132.209C36.8267 132.451 36.9444 132.693 37.0657 132.942C40.2033 139.325 44.4194 144.854 49.2498 150.045C52.3788 153.41 53.6461 156.174 53.5996 160.789C53.3518 163.815 51.9161 166.631 49.7657 168.768C46.5502 171.159 43.3194 172.178 39.3203 171.752C30.5157 169.727 24.1325 159.139 19.5489 151.98C13.0728 141.603 8.74431 130.503 6.39895 118.499C6.3426 118.214 6.28625 117.928 6.22819 117.634C5.18937 111.989 4.85776 106.368 4.88345 100.64C4.88425 100.314 4.88506 99.989 4.88589 99.6537C4.90664 94.3951 5.14809 89.2659 6.11917 84.0859C6.1913 83.693 6.26343 83.3 6.33775 82.8952C9.70469 65.107 17.7534 48.9226 29.9942 35.5898C30.176 35.3891 30.3578 35.1884 30.5452 34.9816C35.7879 29.2423 42.5916 27.101 49.3518 31.9074Z" fill="white"/>
<path d="M140.476 61.0022C141.946 62.5034 143.225 64.1548 144.519 65.8066C144.784 66.123 145.049 66.4395 145.322 66.7655C154.095 77.6478 157.646 92.5379 156.272 106.303C155.496 112.97 153.804 119.091 150.861 125.121C150.744 125.362 150.627 125.603 150.507 125.851C148.84 129.241 146.912 132.255 144.519 135.193C144.344 135.412 144.169 135.632 143.988 135.857C141.284 139.223 138.77 142.219 134.447 143.4C131.142 143.695 128 143.754 125.121 141.908C124.862 141.754 124.603 141.6 124.336 141.442C121.687 139.693 120.092 137.149 119.362 134.074C118.868 130.813 119.349 127.615 121.017 124.748C121.891 123.71 122.816 122.738 123.754 121.758C128.24 116.91 131.548 109.722 131.836 103.111C131.855 102.738 131.874 102.365 131.894 101.981C132.139 92.934 129.069 85.2481 122.926 78.6593C119.654 74.8679 119.189 71.3883 119.525 66.5527C119.839 65.282 120.313 64.2931 121.017 63.1953C121.171 62.9361 121.325 62.6769 121.484 62.4099C123.272 59.7021 125.845 58.1304 128.991 57.4131C133.303 56.8155 137.278 58.1089 140.476 61.0022Z" fill="white"/>
<path d="M78.324 60.7384C81.0055 63.6809 81.9696 67.0561 81.8009 71.0001C81.3739 74.1497 79.952 76.7941 77.6275 78.9565C72.307 83.9709 69.4805 91.8827 69.1042 99.0224C68.8748 107.861 72.0245 116.07 78.0894 122.529C80.5425 125.15 81.8899 128.207 81.8475 131.836C81.6138 135.218 80.5188 138.045 78.0748 140.444C74.4897 143.397 71.0846 143.806 66.5526 143.4C65.2743 143.092 64.292 142.627 63.1952 141.908C62.9216 141.731 62.648 141.554 62.366 141.372C59.9737 139.665 58.2592 137.508 56.4804 135.193C56.212 134.869 55.9437 134.544 55.6672 134.21C46.9406 123.325 43.4246 108.475 44.7352 94.7382C45.9834 83.4625 50.3603 73.0539 57.5995 64.3144C57.7645 64.1115 57.9295 63.9086 58.0995 63.6995C60.843 60.3561 63.7015 57.8794 68.0958 57.2703C71.8619 57.1161 75.4971 58.1896 78.324 60.7384Z" fill="white"/>
<path d="M110.106 87.2801C113.47 89.9059 115.743 93.3011 116.541 97.5156C117.036 102.657 116.17 106.973 112.93 111.116C109.889 114.449 106.287 116.199 101.813 116.681C96.8374 116.858 92.606 115.466 88.9356 112.064C85.6552 108.469 84.2108 104.578 84.2841 99.7293C84.499 95.0546 86.4382 91.2181 89.8842 88.0685C95.9296 83.3491 103.719 83.0131 110.106 87.2801Z" fill="white"/>
</g>
</g>
<defs>
<clipPath id="clip0_1660_242">
<rect width="200" height="200" fill="white"/>
</clipPath>
<clipPath id="clip1_1660_242">
<rect width="191" height="191" fill="white" transform="translate(5 5)"/>
</clipPath>
</defs>
</svg>
