<svg width="200" height="200" viewBox="0 0 200 200" fill="none" xmlns="http://www.w3.org/2000/svg">
<path d="M62.3768 190H137.623C158.402 190 175.246 173.926 175.246 154.097V110.197C175.246 103.823 177.9 97.7103 182.623 93.2032C193.566 82.7605 192.143 65.4584 179.627 56.7722L122.129 16.867C108.936 7.71101 91.0637 7.71101 77.8711 16.867L20.3726 56.7722C7.85683 65.4584 6.43425 82.7605 17.3772 93.2032C22.1003 97.7103 24.7537 103.823 24.7537 110.197V154.097C24.7537 173.926 41.5981 190 62.3768 190Z" stroke="white" stroke-width="15"/>
<path d="M118 136C118 145.941 109.941 154 100 154C90.0589 154 82 145.941 82 136C82 126.059 90.0589 118 100 118C109.941 118 118 126.059 118 136Z" stroke="white" stroke-width="15"/>
</svg>
