<svg width="150" height="150" viewBox="0 0 150 150" fill="none" xmlns="http://www.w3.org/2000/svg">
<path d="M53 48L74 48" stroke="white" stroke-width="5" stroke-linecap="round"/>
<path d="M53 92L69 92" stroke="white" stroke-width="5" stroke-linecap="round"/>
<path d="M53 69L85 69" stroke="white" stroke-width="5" stroke-linecap="round"/>
<g filter="url(#filter0_d_561_95)">
<path d="M108 69.4444V31C108 28.1716 108 26.7574 107.121 25.8787C106.243 25 104.828 25 102 25H36C33.1716 25 31.7574 25 30.8787 25.8787C30 26.7574 30 28.1716 30 31V119C30 121.828 30 123.243 30.8787 124.121C31.7574 125 33.1716 125 36 125H69" stroke="white" stroke-width="5"/>
</g>
<g filter="url(#filter1_d_561_95)">
<circle cx="99.5313" cy="105.779" r="13.9063" stroke="white" stroke-width="5"/>
<path d="M119 125.248L110.656 116.904" stroke="white" stroke-width="5" stroke-linecap="round"/>
</g>
<defs>
<filter id="filter0_d_561_95" x="23.5" y="22.5" width="91" height="113" filterUnits="userSpaceOnUse" color-interpolation-filters="sRGB">
<feFlood flood-opacity="0" result="BackgroundImageFix"/>
<feColorMatrix in="SourceAlpha" type="matrix" values="0 0 0 0 0 0 0 0 0 0 0 0 0 0 0 0 0 0 127 0" result="hardAlpha"/>
<feOffset dy="4"/>
<feGaussianBlur stdDeviation="2"/>
<feComposite in2="hardAlpha" operator="out"/>
<feColorMatrix type="matrix" values="0 0 0 0 0 0 0 0 0 0 0 0 0 0 0 0 0 0 0.25 0"/>
<feBlend mode="normal" in2="BackgroundImageFix" result="effect1_dropShadow_561_95"/>
<feBlend mode="normal" in="SourceGraphic" in2="effect1_dropShadow_561_95" result="shape"/>
</filter>
<filter id="filter1_d_561_95" x="79.125" y="89.3732" width="46.375" height="46.375" filterUnits="userSpaceOnUse" color-interpolation-filters="sRGB">
<feFlood flood-opacity="0" result="BackgroundImageFix"/>
<feColorMatrix in="SourceAlpha" type="matrix" values="0 0 0 0 0 0 0 0 0 0 0 0 0 0 0 0 0 0 127 0" result="hardAlpha"/>
<feOffset dy="4"/>
<feGaussianBlur stdDeviation="2"/>
<feComposite in2="hardAlpha" operator="out"/>
<feColorMatrix type="matrix" values="0 0 0 0 0 0 0 0 0 0 0 0 0 0 0 0 0 0 0.25 0"/>
<feBlend mode="normal" in2="BackgroundImageFix" result="effect1_dropShadow_561_95"/>
<feBlend mode="normal" in="SourceGraphic" in2="effect1_dropShadow_561_95" result="shape"/>
</filter>
</defs>
</svg>
