<svg width="200" height="200" viewBox="0 0 200 200" fill="none" xmlns="http://www.w3.org/2000/svg">
<path d="M82.2953 21.4427C89.5375 6.18578 110.462 6.18576 117.705 21.4427L130.221 47.8106C133.097 53.8691 138.656 58.0684 145.087 59.04L173.074 63.2682C189.268 65.7148 195.734 86.4059 184.016 98.2817L163.764 118.806C159.111 123.522 156.988 130.317 158.086 136.976L162.867 165.957C165.633 182.726 148.704 195.514 134.22 187.596L109.187 173.913C103.436 170.769 96.5643 170.769 90.8125 173.913L65.7799 187.596C51.2955 195.514 34.3668 182.726 37.1331 165.957L41.9139 136.976C43.0124 130.317 40.889 123.522 36.2357 118.806L15.9839 98.2818C4.26579 86.4059 10.732 65.7148 26.9259 63.2682L54.9134 59.04C61.344 58.0684 66.9031 53.8691 69.779 47.8106L82.2953 21.4427Z" fill="#FFCE0A"/>
</svg>
